# xmcd
#
# Track frame offsets: 
#        150
#        20604
#        43338
#        78045
#        101985
#        127059
#        149765
#        173687
#        198085
#
# Disc length: 3039 seconds
#
# Revision: 0
# Processed by: cddbd v1.5.2PL0 Copyright (c) Steve Scherf et al.
# Submitted via: ExactAudioCopy v1.2
#
DISCID=7e0bdd09
DTITLE=Mike Wheeler Band - The Mike Wheeler Band
DYEAR=2003
DGENRE=Blues
TTITLE0=She's Just Right for Me
TTITLE1=I'm Missing You
TTITLE2=I'll Hold On
TTITLE3=Walk It Off
TTITLE4=That's What Love Will Make You Do
TTITLE5=I've Got to Make You Mine
TTITLE6=A Lucky Man
TTITLE7=Change of Heart
TTITLE8=I'm Not Gonna Worry
EXTD=
EXTT0=
EXTT1=
EXTT2=
EXTT3=
EXTT4=
EXTT5=
EXTT6=
EXTT7=
EXTT8=
PLAYORDER=
